<svg width="150" height="46" viewBox="0 0 150 46" fill="none" xmlns="http://www.w3.org/2000/svg">
<path d="M70.6999 12.3H61.1999V21.9H68.9499V26.1H61.1999V39.45H55.3999V7.9H70.6999V12.3Z" fill="#131922"/>
<path d="M78.414 14.9H84.064C87.5973 14.9 89.364 16.55 89.364 19.85V34.5C89.364 37.8 87.5973 39.45 84.064 39.45H78.414C74.8473 39.45 73.064 37.8 73.064 34.5V19.85C73.064 16.55 74.8473 14.9 78.414 14.9ZM83.814 33.85V20.5C83.814 19.9667 83.714 19.6167 83.514 19.45C83.314 19.25 82.9306 19.15 82.364 19.15H80.064C79.4973 19.15 79.114 19.25 78.914 19.45C78.714 19.6167 78.614 19.9667 78.614 20.5V33.85C78.614 34.3833 78.714 34.75 78.914 34.95C79.114 35.1167 79.4973 35.2 80.064 35.2H82.364C82.9306 35.2 83.314 35.1167 83.514 34.95C83.714 34.75 83.814 34.3833 83.814 33.85Z" fill="#131922"/>
<path d="M102.581 14.85H104.081C107.514 14.85 109.231 16.5 109.231 19.8V34.5C109.231 37.8 107.514 39.45 104.081 39.45H102.581C100.681 39.45 99.4978 38.7 99.0312 37.2V39.45H93.4312V6H99.0812V16.95C99.5812 15.55 100.748 14.85 102.581 14.85ZM103.531 33.7V20.6C103.531 20.0667 103.431 19.7167 103.231 19.55C103.031 19.35 102.664 19.25 102.131 19.25H100.631C99.5978 19.25 99.0812 19.8167 99.0812 20.95V33.4C99.0812 34.5 99.5978 35.05 100.631 35.05H102.131C102.664 35.05 103.031 34.9667 103.231 34.8C103.431 34.6 103.531 34.2333 103.531 33.7Z" fill="#131922"/>
<path d="M118.309 14.9H123.609C127.209 14.9 129.009 16.55 129.009 19.85V28.8H118.359V33.85C118.359 34.3833 118.442 34.75 118.609 34.95C118.809 35.1167 119.192 35.2 119.759 35.2H122.059C122.592 35.2 122.959 35.1167 123.159 34.95C123.359 34.75 123.459 34.3833 123.459 33.85V32H128.959V34.5C128.959 37.8 127.142 39.45 123.509 39.45H118.309C114.676 39.45 112.859 37.8 112.859 34.5V19.85C112.859 16.55 114.676 14.9 118.309 14.9ZM118.359 25.15H123.559V20.45C123.559 19.9167 123.459 19.5667 123.259 19.4C123.059 19.2 122.692 19.1 122.159 19.1H119.759C119.226 19.1 118.859 19.2 118.659 19.4C118.459 19.5667 118.359 19.9167 118.359 20.45V25.15Z" fill="#131922"/>
<path d="M142.889 26.85L149.039 39.45H143.189L139.789 31.3L136.539 39.45H130.789L136.689 26.9L130.939 14.9H136.939L139.839 22.55L142.639 14.9H148.439L142.889 26.85Z" fill="#131922"/>
<path d="M22.4904 14.6806C26.8016 14.6806 30.2924 18.1891 30.3115 22.4793C30.3115 26.7887 26.8206 30.2971 22.5095 30.2971C18.1983 30.2971 14.7075 26.7887 14.7075 22.4984C14.7075 18.2082 18.1983 14.6806 22.4904 14.6806Z" fill="#CBCCCF"/>
<path d="M9.15637 4.384C15.4323 -0.249471 23.4251 -1.14566 30.3115 1.39036V11.687C21.4412 5.26112 9.15637 11.7442 9.15637 22.4984V40.6128C-3.05219 31.5937 -3.05219 13.384 9.15637 4.384Z" fill="#FF4C1A"/>
<path d="M35.5002 25.5493C35.7291 25.6065 35.958 25.6255 36.206 25.6255C38.0182 25.6255 39.4871 24.1573 39.4871 22.3459C39.4871 20.5344 38.0182 19.0662 36.206 19.0662C36.0916 19.0662 35.958 19.0662 35.8436 19.0853C35.8436 14.2611 35.8436 6.5196 35.8436 4.384C39.1056 6.78655 41.6999 10.0662 43.2832 13.8607C42.1768 14.1086 41.3374 15.081 41.3374 16.2632C41.3374 17.6171 42.4438 18.723 43.7982 18.723C44.1034 18.723 44.3896 18.6658 44.6566 18.5704C44.8855 19.848 45 21.1446 45 22.4984C45 23.5281 44.9237 24.5387 44.7902 25.5302C44.3705 25.3204 43.8936 25.187 43.3786 25.187C41.6808 25.187 40.3073 26.5598 40.3073 28.2569C40.3073 29.8967 41.5854 31.2315 43.2069 31.3268C38.705 41.8904 26.3819 47.9158 14.6884 43.6065V33.3098C22.624 39.0302 33.44 34.4539 35.5002 25.5493Z" fill="#131922"/>
</svg>
