<?xml version="1.0" encoding="UTF-8"?>
<svg xmlns="http://www.w3.org/2000/svg" xmlns:xlink="http://www.w3.org/1999/xlink" width="129px" height="40px" viewBox="0 0 130 40" version="1.1">
<g id="surface1">
<path style=" stroke:none;fill-rule:nonzero;fill:rgb(100%,100%,100%);fill-opacity:1;" d="M 61.273438 10.695312 L 53.039062 10.695312 L 53.039062 19.042969 L 59.714844 19.042969 L 59.714844 22.695312 L 53.039062 22.695312 L 53.039062 34.347656 L 48.011719 34.347656 L 48.011719 6.871094 L 61.273438 6.871094 Z M 61.273438 10.695312 "/>
<path style=" stroke:none;fill-rule:nonzero;fill:rgb(100%,100%,100%);fill-opacity:1;" d="M 67.945312 12.957031 L 72.886719 12.957031 C 75.921875 12.957031 77.480469 14.347656 77.480469 17.304688 L 77.480469 30 C 77.480469 32.871094 75.921875 34.347656 72.886719 34.347656 L 67.945312 34.347656 C 64.828125 34.347656 63.351562 32.871094 63.351562 30 L 63.351562 17.304688 C 63.351562 14.347656 64.828125 12.957031 67.945312 12.957031 Z M 72.625 29.390625 L 72.625 17.824219 C 72.625 17.390625 72.539062 17.042969 72.367188 16.957031 C 72.191406 16.78125 71.847656 16.695312 71.328125 16.695312 L 69.332031 16.695312 C 68.8125 16.695312 68.464844 16.78125 68.292969 16.957031 C 68.121094 17.128906 68.035156 17.390625 68.035156 17.824219 L 68.035156 29.390625 C 68.035156 29.824219 68.121094 30.175781 68.292969 30.347656 C 68.464844 30.523438 68.8125 30.523438 69.332031 30.523438 L 71.328125 30.523438 C 71.847656 30.523438 72.191406 30.433594 72.367188 30.347656 C 72.539062 30.261719 72.625 29.914062 72.625 29.390625 Z M 72.625 29.390625 "/>
<path style=" stroke:none;fill-rule:nonzero;fill:rgb(100%,100%,100%);fill-opacity:1;" d="M 88.921875 12.957031 L 90.21875 12.957031 C 93.167969 12.957031 94.726562 14.347656 94.726562 17.21875 L 94.726562 30 C 94.726562 32.871094 93.253906 34.347656 90.21875 34.347656 L 88.921875 34.347656 C 87.273438 34.347656 86.234375 33.652344 85.886719 32.433594 L 85.886719 34.347656 L 81.035156 34.347656 L 81.035156 5.21875 L 85.972656 5.21875 L 85.972656 14.78125 C 86.320312 13.566406 87.273438 12.957031 88.921875 12.957031 Z M 89.699219 29.304688 L 89.699219 17.914062 C 89.699219 17.476562 89.613281 17.128906 89.441406 16.957031 C 89.265625 16.78125 88.921875 16.695312 88.488281 16.695312 L 87.1875 16.695312 C 86.320312 16.695312 85.886719 17.21875 85.886719 18.175781 L 85.886719 29.042969 C 85.886719 30 86.320312 30.433594 87.1875 30.433594 L 88.488281 30.433594 C 88.921875 30.433594 89.265625 30.347656 89.441406 30.261719 C 89.613281 30.085938 89.699219 29.738281 89.699219 29.304688 Z M 89.699219 29.304688 "/>
<path style=" stroke:none;fill-rule:nonzero;fill:rgb(100%,100%,100%);fill-opacity:1;" d="M 102.527344 12.957031 L 107.121094 12.957031 C 110.238281 12.957031 111.800781 14.347656 111.800781 17.304688 L 111.800781 25.042969 L 102.527344 25.042969 L 102.527344 29.390625 C 102.527344 29.824219 102.613281 30.175781 102.699219 30.347656 C 102.875 30.523438 103.21875 30.523438 103.738281 30.523438 L 105.734375 30.523438 C 106.167969 30.523438 106.511719 30.433594 106.6875 30.347656 C 106.859375 30.175781 106.945312 29.824219 106.945312 29.390625 L 106.945312 27.824219 L 111.714844 27.824219 L 111.714844 30 C 111.714844 32.871094 110.152344 34.347656 107.035156 34.347656 L 102.527344 34.347656 C 99.40625 34.347656 97.847656 32.871094 97.847656 30 L 97.847656 17.304688 C 97.847656 14.347656 99.40625 12.957031 102.527344 12.957031 Z M 102.613281 21.824219 L 107.121094 21.824219 L 107.121094 17.738281 C 107.121094 17.304688 107.035156 16.957031 106.859375 16.78125 C 106.6875 16.609375 106.339844 16.523438 105.90625 16.523438 L 103.828125 16.523438 C 103.394531 16.523438 103.046875 16.609375 102.875 16.78125 C 102.699219 16.957031 102.613281 17.21875 102.613281 17.738281 Z M 102.613281 21.824219 "/>
<path style=" stroke:none;fill-rule:nonzero;fill:rgb(100%,100%,100%);fill-opacity:1;" d="M 123.847656 23.390625 L 129.132812 34.347656 L 124.019531 34.347656 L 121.074219 27.21875 L 118.300781 34.347656 L 113.273438 34.347656 L 118.386719 23.390625 L 113.359375 12.957031 L 118.558594 12.957031 L 121.074219 19.566406 L 123.5 12.957031 L 128.527344 12.957031 Z M 123.847656 23.390625 "/>
<path style=" stroke:none;fill-rule:nonzero;fill:rgb(79.607843%,80%,81.176471%);fill-opacity:1;" d="M 19.5 12.78125 C 23.226562 12.78125 26.261719 15.824219 26.261719 19.566406 C 26.261719 23.304688 23.226562 26.347656 19.5 26.347656 C 15.773438 26.347656 12.738281 23.304688 12.738281 19.566406 C 12.738281 15.824219 15.773438 12.78125 19.5 12.78125 Z M 19.5 12.78125 "/>
<path style=" stroke:none;fill-rule:nonzero;fill:rgb(98.823529%,85.882353%,0%);fill-opacity:1;" d="M 7.972656 3.824219 C 13.433594 -0.175781 20.367188 -0.957031 26.347656 1.21875 L 26.347656 10.175781 C 18.546875 4.609375 7.972656 10.175781 7.972656 19.566406 L 7.972656 35.304688 C -2.6875 27.476562 -2.6875 11.652344 7.972656 3.824219 Z M 7.972656 3.824219 "/>
<path style=" stroke:none;fill-rule:nonzero;fill:rgb(100%,100%,100%);fill-opacity:1;" d="M 30.765625 22.175781 C 30.941406 22.261719 31.199219 22.261719 31.375 22.261719 C 32.933594 22.261719 34.234375 20.957031 34.234375 19.390625 C 34.234375 17.824219 32.933594 16.523438 31.375 16.523438 C 31.285156 16.523438 31.199219 16.523438 31.027344 16.523438 C 31.027344 12.347656 31.027344 5.566406 31.027344 3.738281 C 33.886719 5.824219 36.140625 8.695312 37.441406 12 C 36.488281 12.175781 35.792969 13.042969 35.792969 14.085938 C 35.792969 15.304688 36.746094 16.261719 37.960938 16.261719 C 38.21875 16.261719 38.480469 16.175781 38.738281 16.085938 C 38.914062 17.21875 39 18.347656 39 19.476562 C 39 20.347656 38.914062 21.21875 38.828125 22.085938 C 38.480469 21.914062 38.046875 21.824219 37.613281 21.824219 C 36.140625 21.824219 34.925781 23.042969 34.925781 24.523438 C 34.925781 25.914062 36.054688 27.128906 37.441406 27.21875 C 33.539062 36.433594 22.878906 41.652344 12.738281 37.914062 L 12.738281 28.957031 C 19.585938 33.914062 28.945312 30 30.765625 22.175781 Z M 30.765625 22.175781 "/>
</g>
</svg>
