<?xml version="1.0" encoding="UTF-8"?>
<svg xmlns="http://www.w3.org/2000/svg" xmlns:xlink="http://www.w3.org/1999/xlink" width="150px" height="46px" viewBox="0 0 150 46" version="1.1">
<g id="surface1">
<path style=" stroke:none;fill-rule:nonzero;fill:rgb(7.45098%,9.803922%,13.333333%);fill-opacity:1;" d="M 70.699219 12.300781 L 61.199219 12.300781 L 61.199219 21.898438 L 68.898438 21.898438 L 68.898438 26.101562 L 61.199219 26.101562 L 61.199219 39.5 L 55.398438 39.5 L 55.398438 7.898438 L 70.699219 7.898438 Z M 70.699219 12.300781 "/>
<path style=" stroke:none;fill-rule:nonzero;fill:rgb(7.45098%,9.803922%,13.333333%);fill-opacity:1;" d="M 78.398438 14.898438 L 84.101562 14.898438 C 87.601562 14.898438 89.398438 16.5 89.398438 19.898438 L 89.398438 34.5 C 89.398438 37.800781 87.601562 39.5 84.101562 39.5 L 78.398438 39.5 C 74.800781 39.5 73.101562 37.800781 73.101562 34.5 L 73.101562 19.898438 C 73.101562 16.5 74.800781 14.898438 78.398438 14.898438 Z M 83.800781 33.800781 L 83.800781 20.5 C 83.800781 20 83.699219 19.601562 83.5 19.5 C 83.300781 19.300781 82.898438 19.199219 82.300781 19.199219 L 80 19.199219 C 79.398438 19.199219 79 19.300781 78.800781 19.5 C 78.601562 19.699219 78.5 20 78.5 20.5 L 78.5 33.800781 C 78.5 34.300781 78.601562 34.699219 78.800781 34.898438 C 79 35.101562 79.398438 35.101562 80 35.101562 L 82.300781 35.101562 C 82.898438 35.101562 83.300781 35 83.5 34.898438 C 83.699219 34.800781 83.800781 34.398438 83.800781 33.800781 Z M 83.800781 33.800781 "/>
<path style=" stroke:none;fill-rule:nonzero;fill:rgb(7.45098%,9.803922%,13.333333%);fill-opacity:1;" d="M 102.601562 14.898438 L 104.101562 14.898438 C 107.5 14.898438 109.300781 16.5 109.300781 19.800781 L 109.300781 34.5 C 109.300781 37.800781 107.601562 39.5 104.101562 39.5 L 102.601562 39.5 C 100.699219 39.5 99.5 38.699219 99.101562 37.300781 L 99.101562 39.5 L 93.5 39.5 L 93.5 6 L 99.199219 6 L 99.199219 17 C 99.601562 15.601562 100.699219 14.898438 102.601562 14.898438 Z M 103.5 33.699219 L 103.5 20.601562 C 103.5 20.101562 103.398438 19.699219 103.199219 19.5 C 103 19.300781 102.601562 19.199219 102.101562 19.199219 L 100.601562 19.199219 C 99.601562 19.199219 99.101562 19.800781 99.101562 20.898438 L 99.101562 33.398438 C 99.101562 34.5 99.601562 35 100.601562 35 L 102.101562 35 C 102.601562 35 103 34.898438 103.199219 34.800781 C 103.398438 34.601562 103.5 34.199219 103.5 33.699219 Z M 103.5 33.699219 "/>
<path style=" stroke:none;fill-rule:nonzero;fill:rgb(7.45098%,9.803922%,13.333333%);fill-opacity:1;" d="M 118.300781 14.898438 L 123.601562 14.898438 C 127.199219 14.898438 129 16.5 129 19.898438 L 129 28.800781 L 118.300781 28.800781 L 118.300781 33.800781 C 118.300781 34.300781 118.398438 34.699219 118.5 34.898438 C 118.699219 35.101562 119.101562 35.101562 119.699219 35.101562 L 122 35.101562 C 122.5 35.101562 122.898438 35 123.101562 34.898438 C 123.300781 34.699219 123.398438 34.300781 123.398438 33.800781 L 123.398438 32 L 128.898438 32 L 128.898438 34.5 C 128.898438 37.800781 127.101562 39.5 123.5 39.5 L 118.300781 39.5 C 114.699219 39.5 112.898438 37.800781 112.898438 34.5 L 112.898438 19.898438 C 112.898438 16.5 114.699219 14.898438 118.300781 14.898438 Z M 118.398438 25.101562 L 123.601562 25.101562 L 123.601562 20.398438 C 123.601562 19.898438 123.5 19.5 123.300781 19.300781 C 123.101562 19.101562 122.699219 19 122.199219 19 L 119.800781 19 C 119.300781 19 118.898438 19.101562 118.699219 19.300781 C 118.5 19.5 118.398438 19.800781 118.398438 20.398438 Z M 118.398438 25.101562 "/>
<path style=" stroke:none;fill-rule:nonzero;fill:rgb(7.45098%,9.803922%,13.333333%);fill-opacity:1;" d="M 142.898438 26.898438 L 149 39.5 L 143.101562 39.5 L 139.699219 31.300781 L 136.5 39.5 L 130.699219 39.5 L 136.601562 26.898438 L 130.800781 14.898438 L 136.800781 14.898438 L 139.699219 22.5 L 142.5 14.898438 L 148.300781 14.898438 Z M 142.898438 26.898438 "/>
<path style=" stroke:none;fill-rule:nonzero;fill:rgb(79.607843%,80%,81.176471%);fill-opacity:1;" d="M 22.5 14.699219 C 26.800781 14.699219 30.300781 18.199219 30.300781 22.5 C 30.300781 26.800781 26.800781 30.300781 22.5 30.300781 C 18.199219 30.300781 14.699219 26.800781 14.699219 22.5 C 14.699219 18.199219 18.199219 14.699219 22.5 14.699219 Z M 22.5 14.699219 "/>
<path style=" stroke:none;fill-rule:nonzero;fill:rgb(98.823529%,85.882353%,0%);fill-opacity:1;" d="M 9.199219 4.398438 C 15.5 -0.199219 23.5 -1.101562 30.398438 1.398438 L 30.398438 11.699219 C 21.398438 5.300781 9.199219 11.699219 9.199219 22.5 L 9.199219 40.601562 C -3.101562 31.601562 -3.101562 13.398438 9.199219 4.398438 Z M 9.199219 4.398438 "/>
<path style=" stroke:none;fill-rule:nonzero;fill:rgb(7.45098%,9.803922%,13.333333%);fill-opacity:1;" d="M 35.5 25.5 C 35.699219 25.601562 36 25.601562 36.199219 25.601562 C 38 25.601562 39.5 24.101562 39.5 22.300781 C 39.5 20.5 38 19 36.199219 19 C 36.101562 19 36 19 35.800781 19 C 35.800781 14.199219 35.800781 6.398438 35.800781 4.300781 C 39.101562 6.699219 41.699219 10 43.199219 13.800781 C 42.101562 14 41.300781 15 41.300781 16.199219 C 41.300781 17.601562 42.398438 18.699219 43.800781 18.699219 C 44.101562 18.699219 44.398438 18.601562 44.699219 18.5 C 44.898438 19.800781 45 21.101562 45 22.398438 C 45 23.398438 44.898438 24.398438 44.800781 25.398438 C 44.398438 25.199219 43.898438 25.101562 43.398438 25.101562 C 41.699219 25.101562 40.300781 26.5 40.300781 28.199219 C 40.300781 29.800781 41.601562 31.199219 43.199219 31.300781 C 38.699219 41.898438 26.398438 47.898438 14.699219 43.601562 L 14.699219 33.300781 C 22.601562 39 33.398438 34.5 35.5 25.5 Z M 35.5 25.5 "/>
</g>
</svg>
